<svg width="512" height="512" xmlns="http://www.w3.org/2000/svg">
 <style type="text/css">.st0{fill:none;stroke:#000000;stroke-width:0;stroke-linecap:round;stroke-linejoin:round;stroke-miterlimit:10;}
	.st1{fill:#248C90;}</style>

 <g>
  <title>background</title>
  <rect fill="none" id="canvas_background" height="514" width="514" y="-1" x="-1"/>
 </g>
 <g>
  <title>Layer 1</title>
  <g stroke="null" id="svg_1">
   <g stroke="null" id="SPLINE">
    <path stroke="null" id="svg_2" d="m242.499992,23.349999l-178.1,103.6c-8.3,5.3 -13.5,13.8 -13.5,24.3l0,208.4c0,9.5 5.2,19 13.5,24.3l178.1,104.7c8.3,5.3 18.7,5.3 27.1,0l178,-104.6c8.3,-5.3 13.5,-13.8 13.5,-24.3l0,-208.4c0,-9.5 -5.2,-19 -13.5,-24.3l-178.1,-103.7c-8.3,-5.3 -18.7,-5.3 -27,0z" class="st0"/>
   </g>
   <g stroke="null" id="SPLINE_1_">
    <path stroke="null" id="svg_3" d="m369.499992,341.749999l-100,58.2c-8.3,5.3 -18.7,5.3 -27.1,0l-100,-58.2c-8.3,-5.3 -13.5,-13.8 -13.5,-24.3l0,-116.4c0,-9.5 5.2,-19 13.5,-24.3l100,-58.2c8.3,-5.3 18.7,-5.3 27.1,0l100,58.2c8.3,5.3 13.5,13.8 13.5,24.3l0,117.4c1.1,9.5 -4.1,19.1 -13.5,23.3z" class="st0"/>
   </g>
   <g stroke="null" id="HATCH">
    <path stroke="null" id="svg_4" d="m242.499992,23.349999l-178.1,103.6c-8.3,5.3 -13.5,13.8 -13.5,24.3l0,208.4c0,9.5 5.2,19 13.5,24.3l178.1,104.7c8.3,5.3 18.7,5.3 27.1,0l178,-104.6c8.3,-5.3 13.5,-13.8 13.5,-24.3l0,-208.4c0,-9.5 -5.2,-19 -13.5,-24.3l-178.1,-103.7c-8.3,-5.3 -18.7,-5.3 -27,0zm127,318.4l-100,58.2c-8.3,5.3 -18.7,5.3 -27.1,0l-100,-58.2c-8.3,-5.3 -13.5,-13.8 -13.5,-24.3l0,-116.4c0,-9.5 5.2,-19 13.5,-24.3l100,-58.2c8.3,-5.3 18.7,-5.3 27.1,0l100,58.2c8.3,5.3 13.5,13.8 13.5,24.3l0,117.4c1.1,9.5 -4.1,19.1 -13.5,23.3z" class="st1"/>
   </g>
   <g stroke="null" id="SPLINE_2_">
    <path stroke="null" id="svg_5" d="m262.199992,300.449999c-4.2,-21.2 -10.4,-21.2 -13.5,-1.1c0,0 0,0 1,34.9c1,34.9 1,34.9 1,34.9c3.1,21.2 8.3,21.2 12.5,-1.1c0,0 0,0 0,-33.9c-1,-33.7 -1,-33.7 -1,-33.7z" class="st0"/>
   </g>
   <g stroke="null" id="HATCH_1_">
    <path stroke="null" id="svg_6" d="m262.199992,300.449999c-4.2,-21.2 -10.4,-21.2 -13.5,-1.1c0,0 0,0 1,34.9c1,34.9 1,34.9 1,34.9c3.1,21.2 8.3,21.2 12.5,-1.1c0,0 0,0 0,-33.9c-1,-33.7 -1,-33.7 -1,-33.7z" class="st1"/>
   </g>
   <g stroke="null" id="SPLINE_3_">
    <path stroke="null" id="svg_7" d="m285.199992,237.049999c-16.7,14.8 -13.5,20.1 5.2,12.7c0,0 0,0 31.2,-19s31.2,-19 31.2,-19c17.7,-14.8 13.5,-19 -7.3,-9.5c0,0 0,0 -30.2,18c-30.1,16.8 -30.1,16.8 -30.1,16.8z" class="st0"/>
   </g>
   <g stroke="null" id="HATCH_2_">
    <path stroke="null" id="svg_8" d="m285.199992,237.049999c-16.7,14.8 -13.5,20.1 5.2,12.7c0,0 0,0 31.2,-19s31.2,-19 31.2,-19c17.7,-14.8 13.5,-19 -7.3,-9.5c0,0 0,0 -30.2,18c-30.1,16.8 -30.1,16.8 -30.1,16.8z" class="st1"/>
   </g>
   <g stroke="null" id="SPLINE_4_">
    <path stroke="null" id="svg_9" d="m226.799992,235.949999c15.6,13.8 13.5,20.1 -5.2,12.7c0,0 0,0 -30.2,-19s-30.2,-19 -30.2,-19c-16.7,-13.8 -13.5,-19 7.3,-9.5c0,0 0,0 29.2,18c29.1,16.8 29.1,16.8 29.1,16.8z" class="st0"/>
   </g>
   <g stroke="null" id="HATCH_3_">
    <path stroke="null" id="svg_10" d="m226.799992,235.949999c15.6,13.8 13.5,20.1 -5.2,12.7c0,0 0,0 -30.2,-19s-30.2,-19 -30.2,-19c-16.7,-13.8 -13.5,-19 7.3,-9.5c0,0 0,0 29.2,18c29.1,16.8 29.1,16.8 29.1,16.8z" class="st1"/>
   </g>
  </g>
 </g>
</svg>