<?xml version="1.0" encoding="utf-8"?>
<!-- Generator: Adobe Illustrator 23.0.4, SVG Export Plug-In . SVG Version: 6.00 Build 0)  -->
<svg version="1.1" xmlns="http://www.w3.org/2000/svg" xmlns:xlink="http://www.w3.org/1999/xlink" x="0px" y="0px"
	 viewBox="0 0 350 350" style="enable-background:new 0 0 350 350;" xml:space="preserve">
<style type="text/css">
	.st0{fill:url(#XMLID_2_);}
	.st1{fill:url(#XMLID_3_);}
	.st2{fill:url(#XMLID_4_);}
	.st3{fill:url(#XMLID_5_);}
</style>
<g id="Sans_signe">
</g>
<g id="Avec_signe">
</g>
<g id="Forme_seule">
	<g id="XMLID_378_">
		<linearGradient id="XMLID_2_" gradientUnits="userSpaceOnUse" x1="165.3943" y1="179.1117" x2="165.3943" y2="297.106">
			<stop  offset="0" style="stop-color:#4814AD"/>
			<stop  offset="0.1391" style="stop-color:#4619AE"/>
			<stop  offset="0.2972" style="stop-color:#4026AF"/>
			<stop  offset="0.4646" style="stop-color:#373DB2"/>
			<stop  offset="0.6384" style="stop-color:#2A5DB5"/>
			<stop  offset="0.8172" style="stop-color:#1986BA"/>
			<stop  offset="0.9978" style="stop-color:#05B7C0"/>
			<stop  offset="1" style="stop-color:#05B8C0"/>
		</linearGradient>
		<path id="XMLID_383_" class="st0" d="M175.6,244.1l-65-65c-9.8,9.4-27.7,29.8-2.3,59.7c12.6,12.6,51.8,51.9,51.9,51.9
			c4.1,4.1,9.7,6.4,15.5,6.4c5.8,0,11.4-2.3,15.5-6.4l44.5-44.5C204.7,277.1,179.5,248.1,175.6,244.1z"/>
		<linearGradient id="XMLID_3_" gradientUnits="userSpaceOnUse" x1="167.9301" y1="98.2836" x2="67.8094" y2="198.4042">
			<stop  offset="0" style="stop-color:#4814AD"/>
			<stop  offset="2.909090e-03" style="stop-color:#4814AD"/>
			<stop  offset="0.6168" style="stop-color:#1E7AB9"/>
			<stop  offset="0.9801" style="stop-color:#05B8C0"/>
		</linearGradient>
		<path id="XMLID_382_" class="st1" d="M107.8,173.5l67.6-67.6c-3.9-3.9-29.1-32.9-60-2l-55.6,55.6c-4.1,4.1-6.4,9.7-6.4,15.5
			s2.3,11.4,6.4,15.5l31.5,31.5C81.4,195.9,102.6,178.5,107.8,173.5z"/>
		<g id="XMLID_379_">
			
				<linearGradient id="XMLID_4_" gradientUnits="userSpaceOnUse" x1="714.7118" y1="7505.5522" x2="714.7118" y2="7623.5464" gradientTransform="matrix(-1 0 0 -1 900.3175 7676.4404)">
				<stop  offset="0" style="stop-color:#4814AD"/>
				<stop  offset="0.1391" style="stop-color:#4619AE"/>
				<stop  offset="0.2972" style="stop-color:#4026AF"/>
				<stop  offset="0.4646" style="stop-color:#373DB2"/>
				<stop  offset="0.6384" style="stop-color:#2A5DB5"/>
				<stop  offset="0.8172" style="stop-color:#1986BA"/>
				<stop  offset="0.9978" style="stop-color:#05B7C0"/>
				<stop  offset="1" style="stop-color:#05B8C0"/>
			</linearGradient>
			<path id="XMLID_381_" class="st2" d="M175.4,105.9l65,65c9.8-9.4,27.7-29.8,2.3-59.7c-12.6-12.6-51.8-51.9-51.9-51.9
				c-4.1-4.1-9.7-6.4-15.5-6.4c-5.8,0-11.4,2.3-15.5,6.4l-44.5,44.5C146.3,72.9,171.5,101.9,175.4,105.9z"/>
			
				<linearGradient id="XMLID_5_" gradientUnits="userSpaceOnUse" x1="717.2476" y1="7424.7241" x2="617.1269" y2="7524.8447" gradientTransform="matrix(-1 0 0 -1 900.3175 7676.4404)">
				<stop  offset="0" style="stop-color:#4814AD"/>
				<stop  offset="2.909090e-03" style="stop-color:#4814AD"/>
				<stop  offset="0.6168" style="stop-color:#1E7AB9"/>
				<stop  offset="0.9801" style="stop-color:#05B8C0"/>
			</linearGradient>
			<path id="XMLID_380_" class="st3" d="M243.2,176.5l-67.6,67.6c3.9,3.9,29.1,32.9,60,2l55.6-55.6c4.1-4.1,6.4-9.7,6.4-15.5
				s-2.3-11.4-6.4-15.5l-31.5-31.5C269.6,154.1,248.4,171.5,243.2,176.5z"/>
		</g>
	</g>
</g>
</svg>
